<?xml version="1.0" standalone="no"?>
<!DOCTYPE svg PUBLIC "-//W3C//DTD SVG 20010904//EN"
 "http://www.w3.org/TR/2001/REC-SVG-20010904/DTD/svg10.dtd">
<svg version="1.0" xmlns="http://www.w3.org/2000/svg"
 width="612.000000pt" height="612.000000pt" viewBox="0 0 612.000000 612.000000"
 preserveAspectRatio="xMidYMid meet">
<metadata>
Created by potrace 1.14, written by Peter Selinger 2001-2017
</metadata>
<g transform="translate(0.000000,612.000000) scale(0.100000,-0.100000)"
fill="#000000" stroke="none">
<path d="M2770 5999 c-798 -82 -1515 -475 -2016 -1104 -541 -681 -750 -1576
-568 -2436 124 -591 447 -1152 894 -1557 313 -284 654 -483 1055 -617 701
-233 1468 -193 2140 112 407 184 798 488 1073 831 234 292 419 643 526 995
278 918 84 1931 -513 2677 -506 633 -1219 1020 -2030 1100 -121 12 -439 11
-561 -1z m705 -308 c259 -46 481 -116 700 -220 831 -395 1404 -1201 1500
-2110 72 -671 -111 -1331 -517 -1874 -167 -223 -445 -482 -688 -640 -664 -432
-1532 -536 -2286 -273 -558 195 -1023 554 -1347 1042 -288 435 -437 933 -437
1459 0 702 259 1341 749 1847 417 431 944 695 1562 782 162 23 605 16 764 -13z"/>
<path d="M2975 5634 c-823 -48 -1555 -471 -2008 -1159 -425 -646 -529 -1466
-282 -2210 273 -825 956 -1458 1800 -1668 239 -59 348 -72 630 -71 266 0 341
8 573 60 868 193 1585 855 1861 1717 86 270 116 472 115 782 0 265 -14 383
-74 621 -48 190 -93 310 -185 499 -415 851 -1269 1401 -2220 1428 -82 2 -177
3 -210 1z m1029 -1123 c27 -30 17 -71 -23 -98 -42 -29 -253 -97 -362 -118 -67
-12 -177 -15 -615 -15 l-534 0 0 -475 c0 -422 2 -475 15 -475 9 0 186 9 393
21 399 22 554 21 704 -7 94 -17 125 -32 115 -57 -11 -28 -51 -47 -146 -67
-165 -36 -310 -42 -633 -26 -161 9 -328 18 -370 21 l-78 6 0 -484 0 -485 53
-7 c90 -12 304 -70 546 -149 409 -134 542 -161 791 -161 188 0 234 7 393 57
203 63 361 162 528 328 198 197 314 410 369 674 11 48 21 90 24 93 3 3 28 2
57 -2 l52 -7 -6 -107 c-6 -117 -35 -239 -92 -386 -123 -320 -381 -599 -700
-758 -192 -95 -354 -136 -575 -144 -242 -9 -413 22 -783 139 -463 147 -548
169 -739 189 -270 28 -527 -44 -697 -197 -28 -25 -97 -108 -153 -185 -56 -77
-104 -137 -105 -132 -1 4 31 120 71 258 83 277 71 257 200 347 115 80 278 139
418 153 35 3 73 8 86 11 l22 4 0 1130 0 1130 878 0 c853 0 879 -1 896 -19z"/>
</g>
</svg>
